<svg width="379" height="94" viewBox="0 0 379 94" fill="none" xmlns="http://www.w3.org/2000/svg">
<path d="M4.16051 68V25.8182H31.5952V32.2237H11.8018V43.6754H30.174V50.081H11.8018V61.5945H31.7599V68H4.16051ZM46.5174 49.4631V68H39.0614V36.3636H46.1879V41.7393H46.5586C47.2863 39.968 48.4466 38.5606 50.0394 37.517C51.646 36.4735 53.6301 35.9517 55.9918 35.9517C58.1751 35.9517 60.0768 36.4186 61.6971 37.3523C63.3311 38.286 64.5943 39.6385 65.4869 41.4098C66.3931 43.1811 66.8394 45.33 66.8256 47.8565V68H59.3697V49.0099C59.3697 46.8954 58.8204 45.2408 57.7219 44.0462C56.6372 42.8516 55.1336 42.2543 53.2113 42.2543C51.9068 42.2543 50.7466 42.5426 49.7305 43.1193C48.7281 43.6823 47.9386 44.4993 47.3619 45.5703C46.7989 46.6413 46.5174 47.9389 46.5174 49.4631ZM88.2049 68.6179C85.0468 68.6179 82.3349 67.9245 80.0692 66.5376C77.8174 65.1508 76.0804 63.2353 74.8583 60.7912C73.65 58.3333 73.0458 55.5047 73.0458 52.3054C73.0458 49.0923 73.6637 46.2569 74.8995 43.799C76.1353 41.3274 77.8791 39.4051 80.131 38.032C82.3967 36.6451 85.0742 35.9517 88.1637 35.9517C90.7314 35.9517 93.0039 36.4254 94.9812 37.3729C96.9722 38.3066 98.5581 39.6316 99.739 41.348C100.92 43.0507 101.593 45.0417 101.757 47.321H94.631C94.3427 45.7969 93.6561 44.5268 92.5714 43.5107C91.5004 42.4808 90.0655 41.9659 88.2667 41.9659C86.7425 41.9659 85.4038 42.3778 84.2504 43.2017C83.0969 44.0118 82.1976 45.179 81.5522 46.7031C80.9206 48.2273 80.6048 50.0535 80.6048 52.1818C80.6048 54.3376 80.9206 56.1913 81.5522 57.7429C82.1838 59.2808 83.0695 60.4685 84.2092 61.3061C85.3626 62.13 86.7151 62.5419 88.2667 62.5419C89.3652 62.5419 90.3469 62.3359 91.212 61.924C92.0908 61.4983 92.8254 60.8873 93.4158 60.0909C94.0063 59.2945 94.4113 58.3265 94.631 57.1868H101.757C101.579 59.425 100.92 61.4091 99.7802 63.1392C98.6405 64.8556 97.0889 66.2012 95.1254 67.1761C93.1618 68.1373 90.855 68.6179 88.2049 68.6179ZM121.68 68.6179C118.59 68.6179 115.912 67.9382 113.647 66.5788C111.381 65.2195 109.624 63.3177 108.374 60.8736C107.138 58.4295 106.52 55.5734 106.52 52.3054C106.52 49.0374 107.138 46.1745 108.374 43.7166C109.624 41.2588 111.381 39.3501 113.647 37.9908C115.912 36.6314 118.59 35.9517 121.68 35.9517C124.769 35.9517 127.447 36.6314 129.712 37.9908C131.978 39.3501 133.729 41.2588 134.964 43.7166C136.214 46.1745 136.839 49.0374 136.839 52.3054C136.839 55.5734 136.214 58.4295 134.964 60.8736C133.729 63.3177 131.978 65.2195 129.712 66.5788C127.447 67.9382 124.769 68.6179 121.68 68.6179ZM121.721 62.6449C123.396 62.6449 124.796 62.1849 125.922 61.2649C127.048 60.3312 127.886 59.0817 128.435 57.5163C128.998 55.951 129.28 54.2071 129.28 52.2848C129.28 50.3487 128.998 48.598 128.435 47.0327C127.886 45.4536 127.048 44.1972 125.922 43.2635C124.796 42.3298 123.396 41.8629 121.721 41.8629C120.004 41.8629 118.576 42.3298 117.437 43.2635C116.311 44.1972 115.466 45.4536 114.903 47.0327C114.354 48.598 114.079 50.3487 114.079 52.2848C114.079 54.2071 114.354 55.951 114.903 57.5163C115.466 59.0817 116.311 60.3312 117.437 61.2649C118.576 62.1849 120.004 62.6449 121.721 62.6449ZM150.623 49.4631V68H143.167V36.3636H150.293V41.7393H150.664C151.392 39.968 152.552 38.5606 154.145 37.517C155.751 36.4735 157.736 35.9517 160.097 35.9517C162.281 35.9517 164.182 36.4186 165.803 37.3523C167.437 38.286 168.7 39.6385 169.592 41.4098C170.499 43.1811 170.945 45.33 170.931 47.8565V68H163.475V49.0099C163.475 46.8954 162.926 45.2408 161.827 44.0462C160.743 42.8516 159.239 42.2543 157.317 42.2543C156.012 42.2543 154.852 42.5426 153.836 43.1193C152.834 43.6823 152.044 44.4993 151.467 45.5703C150.904 46.6413 150.623 47.9389 150.623 49.4631ZM194.308 36.3636V42.1307H176.121V36.3636H194.308ZM180.612 28.7841H188.067V58.4844C188.067 59.4867 188.219 60.2557 188.521 60.7912C188.836 61.313 189.248 61.67 189.756 61.8622C190.264 62.0545 190.827 62.1506 191.445 62.1506C191.912 62.1506 192.338 62.1162 192.722 62.0476C193.121 61.9789 193.423 61.9171 193.629 61.8622L194.885 67.6911C194.487 67.8284 193.917 67.9794 193.175 68.1442C192.448 68.3089 191.555 68.4051 190.498 68.4325C188.63 68.4875 186.948 68.206 185.452 67.5881C183.955 66.9564 182.767 65.9815 181.888 64.6634C181.023 63.3452 180.598 61.6974 180.612 59.7202V28.7841ZM200.544 68V36.3636H207.773V41.6364H208.103C208.68 39.8101 209.668 38.4027 211.069 37.4141C212.483 36.4117 214.096 35.9105 215.909 35.9105C216.321 35.9105 216.781 35.9311 217.289 35.9723C217.811 35.9998 218.243 36.0478 218.586 36.1165V42.9751C218.271 42.8653 217.769 42.7692 217.083 42.6868C216.41 42.5907 215.758 42.5426 215.126 42.5426C213.767 42.5426 212.545 42.8378 211.46 43.4283C210.389 44.005 209.545 44.8082 208.927 45.8381C208.309 46.8679 208 48.0556 208 49.4013V68H200.544ZM236.243 68.6179C233.071 68.6179 230.332 67.9588 228.025 66.6406C225.732 65.3087 223.967 63.4276 222.732 60.9972C221.496 58.553 220.878 55.6764 220.878 52.3672C220.878 49.1129 221.496 46.2569 222.732 43.799C223.981 41.3274 225.725 39.4051 227.963 38.032C230.201 36.6451 232.831 35.9517 235.852 35.9517C237.801 35.9517 239.641 36.2675 241.371 36.8991C243.115 37.517 244.653 38.4782 245.985 39.7827C247.331 41.0871 248.388 42.7486 249.157 44.767C249.926 46.7718 250.31 49.161 250.31 51.9347V54.2209H224.379V49.1953H243.163C243.15 47.7673 242.841 46.4972 242.237 45.3849C241.632 44.259 240.788 43.3733 239.703 42.728C238.632 42.0826 237.383 41.7599 235.955 41.7599C234.43 41.7599 233.092 42.1307 231.938 42.8722C230.785 43.5999 229.885 44.5611 229.24 45.7557C228.608 46.9366 228.286 48.2341 228.272 49.6484V54.0355C228.272 55.8755 228.608 57.4545 229.281 58.7727C229.954 60.0772 230.895 61.0795 232.103 61.7798C233.311 62.4664 234.726 62.8097 236.346 62.8097C237.431 62.8097 238.412 62.6586 239.291 62.3565C240.17 62.0407 240.932 61.5807 241.577 60.9766C242.223 60.3724 242.71 59.6241 243.04 58.7315L250.001 59.5142C249.562 61.3542 248.724 62.9607 247.489 64.3338C246.267 65.6932 244.701 66.7505 242.793 67.5057C240.884 68.2472 238.701 68.6179 236.243 68.6179Z" fill="#030712"/>
<g filter="url(#filter0_ii_113_768)">
<rect x="265" width="114" height="94" rx="16" fill="#2B92FF"/>
<path d="M280.192 25.8182H292.818L303.528 51.9347H304.023L314.733 25.8182H327.359V68H317.431V42.0895H317.081L306.947 67.7322H300.604L290.47 41.9453H290.12V68H280.192V25.8182ZM333.718 68V25.8182H363.13V34.098H343.913V42.7486H361.626V51.049H343.913V59.7202H363.13V68H333.718Z" fill="#F9FAFB"/>
</g>
<defs>
<filter id="filter0_ii_113_768" x="263" y="-4" width="118" height="100" filterUnits="accountSpaceOnUse" color-interpolation-filters="sRGB">
<feFlood flood-opacity="0" result="BackgroundImageFix"/>
<feBlend mode="normal" in="SourceGraphic" in2="BackgroundImageFix" result="shape"/>
<feColorMatrix in="SourceAlpha" type="matrix" values="0 0 0 0 0 0 0 0 0 0 0 0 0 0 0 0 0 0 127 0" result="hardAlpha"/>
<feOffset dx="-2" dy="-4"/>
<feGaussianBlur stdDeviation="2"/>
<feComposite in2="hardAlpha" operator="arithmetic" k2="-1" k3="1"/>
<feColorMatrix type="matrix" values="0 0 0 0 0 0 0 0 0 0 0 0 0 0 0 0 0 0 0.25 0"/>
<feBlend mode="normal" in2="shape" result="effect1_innerShadow_113_768"/>
<feColorMatrix in="SourceAlpha" type="matrix" values="0 0 0 0 0 0 0 0 0 0 0 0 0 0 0 0 0 0 127 0" result="hardAlpha"/>
<feOffset dx="2" dy="2"/>
<feGaussianBlur stdDeviation="4"/>
<feComposite in2="hardAlpha" operator="arithmetic" k2="-1" k3="1"/>
<feColorMatrix type="matrix" values="0 0 0 0 1 0 0 0 0 1 0 0 0 0 1 0 0 0 0.25 0"/>
<feBlend mode="normal" in2="effect1_innerShadow_113_768" result="effect2_innerShadow_113_768"/>
</filter>
</defs>
</svg>
